<svg xmlns="http://www.w3.org/2000/svg" viewBox="0 0 107.75 32.48"><defs><style>.cls-1{fill:#47484c;}</style></defs><title>icon_steam</title><g id="Layer_2" data-name="Layer 2"><g id="Layer_1-2" data-name="Layer 1"><path class="cls-1" d="M16.2,0A16.24,16.24,0,0,0,0,14.92l8.72,3.61a4.56,4.56,0,0,1,2.6-.82h.27l3.88-5.62V12a6.12,6.12,0,1,1,6.12,6.12h-.16l-5.54,4v.23a4.6,4.6,0,0,1-9.11.93L.54,20.66A16.24,16.24,0,1,0,16.2,0Z"/><path class="cls-1" d="M10.19,24.65l-2-.81A3.52,3.52,0,0,0,10,25.54a3.44,3.44,0,0,0,4.5-4.49,3.36,3.36,0,0,0-1.86-1.86,3.44,3.44,0,0,0-2.56,0l2.05.85a2.52,2.52,0,1,1-1.94,4.65Z"/><path class="cls-1" d="M25.62,12.05a4.07,4.07,0,1,0-4.07,4.07A4.07,4.07,0,0,0,25.62,12.05Zm-7.13,0a3.06,3.06,0,1,1,3.06,3.07A3,3,0,0,1,18.49,12.05Z"/><path class="cls-1" d="M49.77,11.12,48.68,13a5.51,5.51,0,0,0-3-.93c-1.13,0-1.82.47-1.82,1.32,0,1,1.24,1.24,3.1,1.94s3.14,1.55,3.14,3.37c0,2.48-2,3.88-4.77,3.88a8.65,8.65,0,0,1-4.3-1.13l.77-2.13a7.68,7.68,0,0,0,3.37.85c1.48,0,2.21-.54,2.21-1.35s-1.08-1.2-2.83-1.79c-2-.65-3.37-1.55-3.37-3.56,0-2.29,1.82-3.57,4.46-3.57A7,7,0,0,1,49.77,11.12Z"/><path class="cls-1" d="M58.3,12.33v10H55.74v-10H52V10.12H62v2.21Z"/><path class="cls-1" d="M67.4,12.33v2.75h4.93v2.21H67.4v2.87h5.7v2.2H64.85V10.12H73.1v2.21Z"/><path class="cls-1" d="M78.8,20,78,22.36H75.31l4.57-12.24h2.6l4.73,12.24H84.42L83.61,20Zm2.36-6.94L79.5,18h3.37Z"/><path class="cls-1" d="M100.35,14.85,97,22H95.58l-3.33-7.06v7.44H89.81V10.12h2.44L96.36,19l4-8.83h2.48V22.36h-2.44Z"/><path class="cls-1" d="M107.75,11.67a1.64,1.64,0,0,1-1.7,1.7,1.67,1.67,0,0,1-1.71-1.7,1.71,1.71,0,1,1,3.41,0Zm-3.1,0a1.4,1.4,0,1,0,2.79,0,1.4,1.4,0,1,0-2.79,0Zm1.44-.86c.42,0,.58.24.58.47a.52.52,0,0,1-.31.46l.39.74h-.31l-.35-.66h-.35v.66h-.27V10.81Zm-.31.78h.31a.28.28,0,0,0,.31-.27c0-.16-.08-.27-.31-.27h-.31Z"/></g></g></svg>