<svg xmlns="http://www.w3.org/2000/svg" viewBox="0 0 70 70"><defs><style>.cls-1{fill:none;}.cls-2{fill:#fff;}</style></defs><title>Asset 3</title><g id="Layer_2" data-name="Layer 2"><g id="Layer_1-2" data-name="Layer 1"><polygon class="cls-1" points="14 42 3.5 42 3.5 66.5 28 66.5 28 56 14 56 14 42"/><rect class="cls-1" x="17.5" y="42" width="10.5" height="10.5"/><polygon class="cls-1" points="17.5 38.5 31.5 38.5 31.5 52.5 66.5 52.5 66.5 3.5 17.5 3.5 17.5 38.5"/><path class="cls-2" d="M70,0H14V38.5H0V70H31.5V56H70ZM28,66.5H3.5V42H14V56H28Zm0-14H17.5V42H28Zm38.5,0h-35v-14h-14V3.5h49Z"/></g></g></svg>