<svg xmlns="http://www.w3.org/2000/svg" viewBox="0 0 48.13 55"><defs><style>.cls-1{fill:#47484c;}</style></defs><title>icon_discord</title><g id="Layer_2" data-name="Layer 2"><g id="Layer_1-2" data-name="Layer 1"><path class="cls-1" d="M19.09,23.07a3.07,3.07,0,0,0,0,6.11,2.94,2.94,0,0,0,2.8-3.06A2.91,2.91,0,0,0,19.09,23.07Zm10,0a3.07,3.07,0,1,0,2.81,3.05A2.93,2.93,0,0,0,29.12,23.07Z"/><path class="cls-1" d="M42.49,0H5.64A5.65,5.65,0,0,0,0,5.66V42.84a5.65,5.65,0,0,0,5.64,5.67H36.82l-1.46-5.09,3.52,3.27,3.33,3.08L48.12,55V5.66A5.64,5.64,0,0,0,42.49,0ZM31.87,35.92s-1-1.19-1.81-2.23a8.67,8.67,0,0,0,5-3.27A15.83,15.83,0,0,1,31.87,32a17.78,17.78,0,0,1-4,1.18,19,19,0,0,1-7.12,0,22.85,22.85,0,0,1-4-1.18,16.18,16.18,0,0,1-2-.94l-.25-.13a.53.53,0,0,1-.11-.09c-.49-.27-.77-.46-.77-.46a8.54,8.54,0,0,0,4.82,3.24c-.83,1-1.85,2.29-1.85,2.29-6.07-.2-8.38-4.18-8.38-4.18a36.85,36.85,0,0,1,4-16,13.54,13.54,0,0,1,7.72-2.88l.28.33a18.38,18.38,0,0,0-7.23,3.6s.6-.33,1.62-.8a20.61,20.61,0,0,1,6.24-1.73,2.52,2.52,0,0,1,.47-.06,23.24,23.24,0,0,1,5.55-.05,22.29,22.29,0,0,1,8.28,2.64,18.3,18.3,0,0,0-6.84-3.49l.38-.44a13.56,13.56,0,0,1,7.73,2.88,36.85,36.85,0,0,1,4,16S38,35.72,31.87,35.92Z"/></g></g></svg>