<svg xmlns="http://www.w3.org/2000/svg" viewBox="0 0 48.13 48.13"><defs><style>.cls-1{fill:#47484c;}</style></defs><title>icon_instagram</title><g id="Layer_2" data-name="Layer 2"><g id="Layer_1-2" data-name="Layer 1"><path class="cls-1" d="M24.06,4.34c6.43,0,7.19,0,9.73.14a13.11,13.11,0,0,1,4.46.82A7.46,7.46,0,0,1,41,7.1a7.63,7.63,0,0,1,1.8,2.77,13.37,13.37,0,0,1,.83,4.47c.11,2.54.14,3.3.14,9.72s0,7.19-.14,9.73a13.3,13.3,0,0,1-.83,4.46,8,8,0,0,1-4.57,4.57,13.3,13.3,0,0,1-4.46.83c-2.54.11-3.3.14-9.73.14s-7.18,0-9.72-.14a13.37,13.37,0,0,1-4.47-.83A7.63,7.63,0,0,1,7.1,41a7.46,7.46,0,0,1-1.8-2.77,13.11,13.11,0,0,1-.82-4.46c-.12-2.54-.14-3.3-.14-9.73s0-7.18.14-9.72A13.18,13.18,0,0,1,5.3,9.87,8,8,0,0,1,9.87,5.3a13.18,13.18,0,0,1,4.47-.82c2.54-.12,3.3-.14,9.72-.14m0-4.34c-6.53,0-7.35,0-9.92.14A17.86,17.86,0,0,0,8.3,1.26,11.88,11.88,0,0,0,4,4,11.88,11.88,0,0,0,1.26,8.3,17.86,17.86,0,0,0,.14,14.14C0,16.71,0,17.53,0,24.06S0,31.42.14,34a17.86,17.86,0,0,0,1.12,5.84A11.83,11.83,0,0,0,4,44.09,11.85,11.85,0,0,0,8.3,46.86,17.6,17.6,0,0,0,14.14,48c2.57.12,3.39.14,9.92.14s7.36,0,9.92-.14a17.6,17.6,0,0,0,5.84-1.12,12.21,12.21,0,0,0,7-7A17.6,17.6,0,0,0,48,34c.12-2.56.14-3.38.14-9.92s0-7.35-.14-9.92A17.6,17.6,0,0,0,46.86,8.3,11.85,11.85,0,0,0,44.09,4a11.83,11.83,0,0,0-4.27-2.78A17.86,17.86,0,0,0,34,.14C31.42,0,30.6,0,24.06,0Z"/><path class="cls-1" d="M24.06,11.71A12.36,12.36,0,1,0,36.42,24.06,12.35,12.35,0,0,0,24.06,11.71Zm0,20.37a8,8,0,1,1,8-8A8,8,0,0,1,24.06,32.08Z"/><circle class="cls-1" cx="36.91" cy="11.22" r="2.89"/></g></g></svg>