<svg xmlns="http://www.w3.org/2000/svg" viewBox="0 0 70 70"><defs><style>.cls-1{fill:#fff;}</style></defs><title>Asset 5</title><g id="Layer_2" data-name="Layer 2"><g id="Layer_1-2" data-name="Layer 1"><path class="cls-1" d="M40.3,30A53.9,53.9,0,0,1,47.77,19.3V15.53H22.23v4.66H41.55A54.32,54.32,0,0,0,34.6,30.51a57.81,57.81,0,0,0-3,6.51l-.34.34a1,1,0,0,0-.18,1.1C30.52,40,30,41.61,29.58,43.22a48,48,0,0,0-1.83,11.25h5a50.93,50.93,0,0,1,1.85-10.85A65.75,65.75,0,0,1,40.3,30Z"/><path class="cls-1" d="M61.53,14.66a1,1,0,0,0,.61-.22,1,1,0,0,0,.15-1.36,35.45,35.45,0,0,0-2.53-2.81v0h0a36.25,36.25,0,0,0-3-2.68,1,1,0,1,0-1.21,1.52c.74.59,1.46,1.22,2.15,1.88l-2.05,2a1,1,0,0,0,0,1.38,1,1,0,0,0,1.38,0l2-2.05c.6.64,1.18,1.29,1.73,2A1,1,0,0,0,61.53,14.66Z"/><path class="cls-1" d="M42.39,67.23a34.17,34.17,0,0,1-7.36.83A1,1,0,1,0,35,70h0a35,35,0,0,0,7.78-.88,1,1,0,1,0-.43-1.89Z"/><path class="cls-1" d="M27.68,67.24a32.72,32.72,0,0,1-7-2.43,1,1,0,0,0-.84,1.75,35.29,35.29,0,0,0,7.4,2.58.82.82,0,0,0,.22,0,1,1,0,0,0,.21-1.92Z"/><path class="cls-1" d="M12.33,59l2.05-2A1,1,0,0,0,13,55.62l-2,2.05c-.62-.65-1.21-1.32-1.77-2a1,1,0,1,0-1.52,1.22,35,35,0,0,0,2.58,2.87h0a33.9,33.9,0,0,0,3,2.65,1,1,0,0,0,.6.21,1,1,0,0,0,.61-1.74C13.7,60.3,13,59.68,12.33,59Z"/><path class="cls-1" d="M55.62,60.83a32.6,32.6,0,0,1-6.25,4,1,1,0,0,0-.46,1.3,1,1,0,0,0,.88.55.9.9,0,0,0,.42-.1,35.23,35.23,0,0,0,6.63-4.18A1,1,0,0,0,57,61,1,1,0,0,0,55.62,60.83Z"/><path class="cls-1" d="M69,33.88a1,1,0,0,0-1,1V35a33.52,33.52,0,0,1-.82,7.35A1,1,0,0,0,68,43.52l.22,0a1,1,0,0,0,.94-.76A35,35,0,0,0,70,35v-.14A1,1,0,0,0,69,33.88Z"/><path class="cls-1" d="M66.09,48.88a1,1,0,0,0-1.3.46,32.63,32.63,0,0,1-3.94,6.26,1,1,0,0,0,.76,1.58,1,1,0,0,0,.76-.37,34.92,34.92,0,0,0,4.18-6.63A1,1,0,0,0,66.09,48.88Z"/><path class="cls-1" d="M68.15,28.26a.82.82,0,0,0,.22,0,1,1,0,0,0,.73-1.17,34.68,34.68,0,0,0-2.62-7.38,1,1,0,0,0-1.3-.45,1,1,0,0,0-.45,1.3,32.7,32.7,0,0,1,2.48,7A1,1,0,0,0,68.15,28.26Z"/><path class="cls-1" d="M3.88,21.18a.92.92,0,0,0,.42.1,1,1,0,0,0,.88-.56A32.92,32.92,0,0,1,9.1,14.45,1,1,0,0,0,9,13.09a1,1,0,0,0-1.37.15,35.21,35.21,0,0,0-4.16,6.64A1,1,0,0,0,3.88,21.18Z"/><path class="cls-1" d="M27.33,2.81l.22,0a33.48,33.48,0,0,1,7.35-.85,1,1,0,0,0,1-1,1,1,0,0,0-1-1h0a35.63,35.63,0,0,0-7.78.89,1,1,0,0,0-.73,1.17A1,1,0,0,0,27.33,2.81Z"/><path class="cls-1" d="M1.94,35a33.58,33.58,0,0,1,.81-7.29A1,1,0,0,0,2,26.55a1,1,0,0,0-1.17.74A35.51,35.51,0,0,0,0,35v.07A1,1,0,0,0,1,36,1,1,0,0,0,1.94,35Z"/><path class="cls-1" d="M42.25,2.74a32.69,32.69,0,0,1,7,2.42.92.92,0,0,0,.42.1,1,1,0,0,0,.88-.56,1,1,0,0,0-.46-1.29A34.7,34.7,0,0,0,42.68.84a1,1,0,0,0-.43,1.9Z"/><path class="cls-1" d="M2.78,42.42a1,1,0,1,0-1.89.44,34.9,34.9,0,0,0,2.6,7.39,1,1,0,0,0,.87.54,1.11,1.11,0,0,0,.43-.09,1,1,0,0,0,.45-1.3A32.73,32.73,0,0,1,2.78,42.42Z"/><path class="cls-1" d="M13.71,9.42a1,1,0,0,0,.61-.21,33.15,33.15,0,0,1,6.25-4,1,1,0,0,0-.85-1.75,34.82,34.82,0,0,0-6.61,4.19A1,1,0,0,0,13,9.06,1,1,0,0,0,13.71,9.42Z"/><path class="cls-1" d="M20.47,50.91l6.08-6.09a1,1,0,0,0-1.37-1.37l-6.09,6.09a1,1,0,0,0,0,1.37,1,1,0,0,0,1.38,0Z"/><path class="cls-1" d="M50.91,19.09a1,1,0,0,0-1.37,0l-6.09,6.09a1,1,0,0,0,.68,1.66,1,1,0,0,0,.69-.29l6.09-6.09A1,1,0,0,0,50.91,19.09Z"/></g></g></svg>