<svg xmlns="http://www.w3.org/2000/svg" viewBox="0 0 70 70.22"><defs><style>.cls-1{fill:#fff;}</style></defs><title>Asset 6</title><g id="Layer_2" data-name="Layer 2"><g id="Layer_1-2" data-name="Layer 1"><path class="cls-1" d="M66,63.27v2.95h-3V63.27h3m1.19-4H61.85a2.8,2.8,0,0,0-2.8,2.81v5.34a2.8,2.8,0,0,0,2.8,2.8h5.34A2.8,2.8,0,0,0,70,67.42V62.08a2.81,2.81,0,0,0-2.81-2.81Z"/><path class="cls-1" d="M51.24,63.27v2.95h-3V63.27h3m.49-4H47.79a3.51,3.51,0,0,0-3.51,3.51v3.93a3.51,3.51,0,0,0,3.51,3.51h3.94a3.51,3.51,0,0,0,3.51-3.51V62.78a3.51,3.51,0,0,0-3.51-3.51Z"/><path class="cls-1" d="M36.26,63.27a.21.21,0,0,1,.22.21V66a.21.21,0,0,1-.22.21H33.74a.21.21,0,0,1-.22-.21V63.48a.21.21,0,0,1,.22-.21h2.52m0-4H33.74a4.22,4.22,0,0,0-4.22,4.21V66a4.21,4.21,0,0,0,4.22,4.21h2.52A4.21,4.21,0,0,0,40.48,66V63.48a4.22,4.22,0,0,0-4.22-4.21Z"/><path class="cls-1" d="M20.8,63.27a.92.92,0,0,1,.92.91v1.13a.92.92,0,0,1-.92.91H19.68a.92.92,0,0,1-.92-.91V64.18a.92.92,0,0,1,.92-.91H20.8m0-4H19.68a4.91,4.91,0,0,0-4.92,4.91v1.13a4.91,4.91,0,0,0,4.92,4.91H20.8a4.91,4.91,0,0,0,4.92-4.91V64.18a4.91,4.91,0,0,0-4.92-4.91Z"/><path class="cls-1" d="M5.48,63.27A1.48,1.48,0,1,1,4,64.75a1.47,1.47,0,0,1,1.48-1.48m0-4A5.48,5.48,0,1,0,11,64.75a5.48,5.48,0,0,0-5.47-5.48Z"/><path class="cls-1" d="M66,48.45v3h-3v-3h3m1.89-4H61.15a2.11,2.11,0,0,0-2.1,2.11V53.3a2.11,2.11,0,0,0,2.1,2.11h6.74A2.11,2.11,0,0,0,70,53.3V46.56a2.11,2.11,0,0,0-2.11-2.11Z"/><path class="cls-1" d="M51.24,48.45v3h-3v-3h3m1.19-4H47.09a2.81,2.81,0,0,0-2.81,2.81V52.6a2.81,2.81,0,0,0,2.81,2.81h5.34a2.81,2.81,0,0,0,2.81-2.81V47.26a2.81,2.81,0,0,0-2.81-2.81Z"/><path class="cls-1" d="M36.48,48.45v3h-3v-3h3m.49-4H33A3.51,3.51,0,0,0,29.52,48V51.9A3.51,3.51,0,0,0,33,55.41H37a3.51,3.51,0,0,0,3.51-3.51V48A3.51,3.51,0,0,0,37,44.45Z"/><path class="cls-1" d="M21.5,48.45a.22.22,0,0,1,.22.21v2.53a.22.22,0,0,1-.22.22H19a.22.22,0,0,1-.21-.22V48.66a.22.22,0,0,1,.21-.21H21.5m0-4H19a4.22,4.22,0,0,0-4.21,4.21v2.53A4.22,4.22,0,0,0,19,55.41H21.5a4.22,4.22,0,0,0,4.22-4.22V48.66a4.22,4.22,0,0,0-4.22-4.21Z"/><path class="cls-1" d="M6,48.45a.92.92,0,0,1,.91.92v1.12a.92.92,0,0,1-.91.92H4.92A.92.92,0,0,1,4,50.49V49.37a.92.92,0,0,1,.92-.92H6m0-4H4.92A4.92,4.92,0,0,0,0,49.37v1.12a4.92,4.92,0,0,0,4.92,4.92H6A4.91,4.91,0,0,0,11,50.49V49.37A4.91,4.91,0,0,0,6,44.45Z"/><path class="cls-1" d="M66,33.64v3h-3v-3h3m2.6-4H60.45a1.39,1.39,0,0,0-1.4,1.4v8.15a1.4,1.4,0,0,0,1.4,1.4H68.6a1.4,1.4,0,0,0,1.4-1.4V31a1.4,1.4,0,0,0-1.4-1.4Z"/><path class="cls-1" d="M51.24,33.63v3h-3v-3h3m1.89-4H46.39a2.12,2.12,0,0,0-2.11,2.11v6.74a2.11,2.11,0,0,0,2.11,2.11h6.74a2.1,2.1,0,0,0,2.11-2.11V31.74a2.11,2.11,0,0,0-2.11-2.11Z"/><path class="cls-1" d="M36.48,33.63v3h-3v-3h3m1.19-4H32.33a2.81,2.81,0,0,0-2.81,2.81v5.34a2.81,2.81,0,0,0,2.81,2.81h5.34a2.81,2.81,0,0,0,2.81-2.81V32.44a2.81,2.81,0,0,0-2.81-2.81Z"/><path class="cls-1" d="M21.72,33.63v3h-3v-3h3m.49-4H18.27a3.52,3.52,0,0,0-3.51,3.52v3.93a3.51,3.51,0,0,0,3.51,3.51h3.94a3.51,3.51,0,0,0,3.51-3.51V33.15a3.52,3.52,0,0,0-3.51-3.52Z"/><path class="cls-1" d="M6.74,33.63a.21.21,0,0,1,.21.22v2.53a.21.21,0,0,1-.21.21H4.21A.22.22,0,0,1,4,36.38V33.85a.22.22,0,0,1,.21-.22H6.74m0-4H4.21A4.22,4.22,0,0,0,0,33.85v2.53a4.22,4.22,0,0,0,4.21,4.21H6.74A4.21,4.21,0,0,0,11,36.38V33.85a4.21,4.21,0,0,0-4.21-4.22Z"/><path class="cls-1" d="M66,18.82v2.95h-3V18.82h3m3.3-4H59.75a.7.7,0,0,0-.7.7v9.55a.7.7,0,0,0,.7.7H69.3a.7.7,0,0,0,.7-.7V15.52a.7.7,0,0,0-.7-.7Z"/><path class="cls-1" d="M51.24,18.82v2.95h-3V18.82h3m2.59-4H45.69a1.41,1.41,0,0,0-1.41,1.4v8.15a1.41,1.41,0,0,0,1.41,1.4h8.14a1.41,1.41,0,0,0,1.41-1.4V16.22a1.41,1.41,0,0,0-1.41-1.4Z"/><path class="cls-1" d="M36.48,18.82v2.95h-3V18.82h3m1.89-4H31.63a2.11,2.11,0,0,0-2.11,2.1v6.75a2.11,2.11,0,0,0,2.11,2.1h6.74a2.11,2.11,0,0,0,2.11-2.1V16.92a2.11,2.11,0,0,0-2.11-2.1Z"/><path class="cls-1" d="M21.72,18.82v2.95h-3V18.82h3m1.19-4H17.57a2.81,2.81,0,0,0-2.81,2.81V23a2.81,2.81,0,0,0,2.81,2.81h5.34A2.81,2.81,0,0,0,25.72,23V17.63a2.81,2.81,0,0,0-2.81-2.81Z"/><path class="cls-1" d="M7,18.82v2.95H4V18.82H7m.49-4H3.51A3.51,3.51,0,0,0,0,18.33v3.93a3.51,3.51,0,0,0,3.51,3.51H7.44A3.51,3.51,0,0,0,11,22.26V18.33a3.51,3.51,0,0,0-3.51-3.51Z"/><path class="cls-1" d="M66,4V7h-3V4h3m4-4h-11V11H70V0Z"/><path class="cls-1" d="M51.24,4V7h-3V4h3m3.3-4H45a.71.71,0,0,0-.71.7v9.55A.71.71,0,0,0,45,11h9.55a.71.71,0,0,0,.7-.71V.7a.71.71,0,0,0-.7-.7Z"/><path class="cls-1" d="M36.48,4V7h-3V4h3m2.59-4H30.93a1.41,1.41,0,0,0-1.41,1.4V9.55A1.41,1.41,0,0,0,30.93,11h8.14a1.41,1.41,0,0,0,1.41-1.41V1.4A1.41,1.41,0,0,0,39.07,0Z"/><path class="cls-1" d="M21.72,4V7h-3V4h3m1.89-4H16.87a2.1,2.1,0,0,0-2.11,2.11V8.85A2.11,2.11,0,0,0,16.87,11h6.74a2.12,2.12,0,0,0,2.11-2.11V2.11A2.11,2.11,0,0,0,23.61,0Z"/><path class="cls-1" d="M7,4V7H4V4H7m1.2-4H2.81A2.81,2.81,0,0,0,0,2.81V8.15A2.8,2.8,0,0,0,2.81,11H8.15A2.8,2.8,0,0,0,11,8.15V2.81A2.8,2.8,0,0,0,8.15,0Z"/></g></g></svg>