<svg xmlns="http://www.w3.org/2000/svg" viewBox="0 0 70 70"><defs><style>.cls-1,.cls-2,.cls-3,.cls-4,.cls-5{fill:#fff;}.cls-2{opacity:0.8;}.cls-3{opacity:0.6;}.cls-4{opacity:0.4;}.cls-5{opacity:0.2;}</style></defs><title>Asset 4</title><g id="Layer_2" data-name="Layer 2"><g id="Layer_1-2" data-name="Layer 1"><path class="cls-1" d="M68.84,0H1.16A1.22,1.22,0,0,0,0,1.27V9.16a1.22,1.22,0,0,0,1.16,1.27H68.84A1.22,1.22,0,0,0,70,9.16V1.27A1.22,1.22,0,0,0,68.84,0Z"/><path class="cls-2" d="M68.84,14.89H1.16A1.22,1.22,0,0,0,0,16.16v7.89a1.22,1.22,0,0,0,1.16,1.27H68.84A1.22,1.22,0,0,0,70,24.05V16.16A1.22,1.22,0,0,0,68.84,14.89Z"/><path class="cls-3" d="M68.84,29.79H1.16A1.21,1.21,0,0,0,0,31.05V39a1.21,1.21,0,0,0,1.16,1.26H68.84A1.21,1.21,0,0,0,70,39v-7.9A1.21,1.21,0,0,0,68.84,29.79Z"/><path class="cls-4" d="M68.84,44.68H1.16A1.22,1.22,0,0,0,0,46v7.89a1.22,1.22,0,0,0,1.16,1.27H68.84A1.22,1.22,0,0,0,70,53.84V46A1.22,1.22,0,0,0,68.84,44.68Z"/><path class="cls-5" d="M68.84,59.57H1.16A1.22,1.22,0,0,0,0,60.84v7.89A1.22,1.22,0,0,0,1.16,70H68.84A1.22,1.22,0,0,0,70,68.73V60.84A1.22,1.22,0,0,0,68.84,59.57Z"/></g></g></svg>