<svg xmlns="http://www.w3.org/2000/svg" viewBox="0 0 74 73.49"><defs><style>.cls-1{fill:#fff;}</style></defs><title>Asset 8</title><g id="Layer_2" data-name="Layer 2"><g id="Layer_1-2" data-name="Layer 1"><path class="cls-1" d="M52.56,21.52l5.94.24a2.09,2.09,0,0,0,.17-4.17l-11.15-.44h-.24l-.09,0a.78.78,0,0,0-.21,0l-.12,0,0,0a1.57,1.57,0,0,0-.23.09l-.07,0h0l0,0a1.46,1.46,0,0,0-.33.22h0a2.47,2.47,0,0,0-.28.28s0,0,0,0,0,0,0,0l0,.06a1.43,1.43,0,0,0-.14.2l0,.06a.42.42,0,0,1,0,.1,1.67,1.67,0,0,0-.08.2l0,.09s0,.08,0,.12a.45.45,0,0,0,0,.11l-1.76,11a2.09,2.09,0,0,0,4.12.66l.94-5.89A16.08,16.08,0,0,1,37,51.83,16.1,16.1,0,0,1,30.61,21a2.5,2.5,0,0,0-2-4.59,21.12,21.12,0,1,0,23.93,5.15Z"/><path class="cls-1" d="M3.4,26.47A2,2,0,0,0,6,25.27a32.93,32.93,0,0,1,5.71-9.93A2,2,0,0,0,8.6,12.78,36.59,36.59,0,0,0,2.2,23.91,2,2,0,0,0,3.4,26.47Z"/><path class="cls-1" d="M20.53,65.1a33.17,33.17,0,0,1-8.78-7.36,2,2,0,1,0-3.06,2.58,36.79,36.79,0,0,0,9.85,8.24,1.87,1.87,0,0,0,1,.27,2,2,0,0,0,1-3.73Z"/><path class="cls-1" d="M19.42,8.22a2,2,0,0,0,1-.27A32.55,32.55,0,0,1,31.17,4a2,2,0,0,0-.7-3.94A36.75,36.75,0,0,0,18.41,4.5a2,2,0,0,0,1,3.72Z"/><path class="cls-1" d="M42.76,69A33.41,33.41,0,0,1,31.3,69a2,2,0,0,0-.68,4,37.72,37.72,0,0,0,6.38.54,36.48,36.48,0,0,0,6.45-.56A2,2,0,1,0,42.76,69Z"/><path class="cls-1" d="M4,36.56a2,2,0,0,0-2-2H2a2,2,0,0,0-2,2A36.73,36.73,0,0,0,2.25,49.22a2,2,0,0,0,1.87,1.31,2.09,2.09,0,0,0,.69-.12A2,2,0,0,0,6,47.84,33,33,0,0,1,4,36.56Z"/><path class="cls-1" d="M62.29,57.7a33.16,33.16,0,0,1-8.77,7.37,2,2,0,1,0,2,3.46,36.78,36.78,0,0,0,9.83-8.26,2,2,0,1,0-3.06-2.57Z"/><path class="cls-1" d="M74,36.35a2,2,0,1,0-4,0v.14a33,33,0,0,1-2,11.29,2,2,0,0,0,1.2,2.56,1.78,1.78,0,0,0,.68.12,2,2,0,0,0,1.88-1.31A37.06,37.06,0,0,0,74,36.45Z"/><path class="cls-1" d="M68,25.09a2,2,0,0,0,1.87,1.31,1.84,1.84,0,0,0,.69-.13,2,2,0,0,0,1.19-2.57,36.81,36.81,0,0,0-6.47-11.09,2,2,0,0,0-3.05,2.59A32.79,32.79,0,0,1,68,25.09Z"/><path class="cls-1" d="M42.63,4A32.75,32.75,0,0,1,53.41,7.86a2,2,0,0,0,1,.26,2,2,0,0,0,1-3.73A36.63,36.63,0,0,0,43.31,0,2,2,0,0,0,42.63,4Z"/></g></g></svg>