<svg xmlns="http://www.w3.org/2000/svg" viewBox="0 0 70 70"><defs><style>.cls-1{fill:none;}.cls-2{fill:#fff;}</style></defs><title>Asset 1</title><g id="Layer_2" data-name="Layer 2"><g id="Layer_1-2" data-name="Layer 1"><path class="cls-1" d="M40.33,40.8a3.26,3.26,0,0,0,2.51-1.07,4.31,4.31,0,0,0,1-3,5.27,5.27,0,0,0-.42-2.18,3.28,3.28,0,0,0-3.06-1.95,3.49,3.49,0,0,0-2.47,1,4.45,4.45,0,0,0-1,3.29,4.11,4.11,0,0,0,1,2.91A3.25,3.25,0,0,0,40.33,40.8Z"/><polygon class="cls-1" points="18.8 8.55 9.18 17.5 18.8 17.5 18.8 8.55"/><path class="cls-1" d="M24,22.69H5.19V64.81H64.81V5.19H24ZM16.89,41.78H15.46V40.36h1.43ZM47,31.58h1.38l5.36,8v-8H55v10.2H53.6l-5.36-8v8H47ZM36.82,32.83a4.68,4.68,0,0,1,3.53-1.43,4.85,4.85,0,0,1,2.54.67A4.37,4.37,0,0,1,44.62,34a6.1,6.1,0,0,1,.6,2.74,6,6,0,0,1-.63,2.78,4.25,4.25,0,0,1-1.77,1.86,5.08,5.08,0,0,1-2.48.63,4.8,4.8,0,0,1-2.58-.7A4.52,4.52,0,0,1,36,39.36a5.74,5.74,0,0,1-.58-2.55A5.56,5.56,0,0,1,36.82,32.83Zm-4.38,5.34a2.07,2.07,0,0,0-.92-.6,18.19,18.19,0,0,0-1.81-.5,8.89,8.89,0,0,1-2-.63,2.86,2.86,0,0,1-1.09-.95,2.35,2.35,0,0,1-.36-1.27,2.55,2.55,0,0,1,.44-1.45,2.68,2.68,0,0,1,1.28-1,4.87,4.87,0,0,1,1.87-.35,5.13,5.13,0,0,1,2,.37,2.88,2.88,0,0,1,1.34,1.07,3.18,3.18,0,0,1,.5,1.61l-1.3.1a2.08,2.08,0,0,0-.7-1.46,2.78,2.78,0,0,0-1.78-.5,2.85,2.85,0,0,0-1.79.45,1.36,1.36,0,0,0-.56,1.09,1.15,1.15,0,0,0,.4.9,5.35,5.35,0,0,0,2,.73,13.23,13.23,0,0,1,2.26.65,3,3,0,0,1,1.32,1A2.55,2.55,0,0,1,34,38.9a2.8,2.8,0,0,1-.46,1.54,3.1,3.1,0,0,1-1.34,1.12,4.81,4.81,0,0,1-2,.4,5.84,5.84,0,0,1-2.32-.41,3.14,3.14,0,0,1-1.47-1.21,3.41,3.41,0,0,1-.56-1.84l1.27-.11a2.84,2.84,0,0,0,.42,1.26,2.29,2.29,0,0,0,1,.79,4.13,4.13,0,0,0,2.93.08,2,2,0,0,0,.88-.63,1.43,1.43,0,0,0,.29-.88A1.31,1.31,0,0,0,32.44,38.17Zm-8.29.36a5,5,0,0,1-.31,2,2.22,2.22,0,0,1-1,1.07,3.18,3.18,0,0,1-1.58.37,2.66,2.66,0,0,1-2.05-.77,3.19,3.19,0,0,1-.69-2.3l1.22-.17a2.59,2.59,0,0,0,.44,1.6,1.37,1.37,0,0,0,1.08.43,1.55,1.55,0,0,0,.87-.23,1.2,1.2,0,0,0,.51-.63,4.38,4.38,0,0,0,.14-1.28v-7h1.35Z"/><rect class="cls-2" x="15.46" y="40.36" width="1.43" height="1.43"/><path class="cls-2" d="M22.8,38.61a4.38,4.38,0,0,1-.14,1.28,1.2,1.2,0,0,1-.51.63,1.55,1.55,0,0,1-.87.23,1.37,1.37,0,0,1-1.08-.43,2.59,2.59,0,0,1-.44-1.6l-1.22.17a3.19,3.19,0,0,0,.69,2.3,2.66,2.66,0,0,0,2.05.77,3.18,3.18,0,0,0,1.58-.37,2.22,2.22,0,0,0,1-1.07,5,5,0,0,0,.31-2v-7H22.8Z"/><path class="cls-2" d="M31.55,40.52a4.13,4.13,0,0,1-2.93-.08,2.29,2.29,0,0,1-1-.79,2.84,2.84,0,0,1-.42-1.26l-1.27.11a3.41,3.41,0,0,0,.56,1.84,3.14,3.14,0,0,0,1.47,1.21,5.84,5.84,0,0,0,2.32.41,4.81,4.81,0,0,0,2-.4,3.1,3.1,0,0,0,1.34-1.12A2.8,2.8,0,0,0,34,38.9a2.55,2.55,0,0,0-.42-1.45,3,3,0,0,0-1.32-1A13.23,13.23,0,0,0,30,35.76,5.35,5.35,0,0,1,28,35a1.15,1.15,0,0,1-.4-.9A1.36,1.36,0,0,1,28.15,33a2.85,2.85,0,0,1,1.79-.45,2.78,2.78,0,0,1,1.78.5,2.08,2.08,0,0,1,.7,1.46l1.3-.1a3.18,3.18,0,0,0-.5-1.61,2.88,2.88,0,0,0-1.34-1.07,5.13,5.13,0,0,0-2-.37,4.87,4.87,0,0,0-1.87.35,2.68,2.68,0,0,0-1.28,1,2.55,2.55,0,0,0-.44,1.45,2.35,2.35,0,0,0,.36,1.27,2.86,2.86,0,0,0,1.09.95,8.89,8.89,0,0,0,2,.63,18.19,18.19,0,0,1,1.81.5,2.07,2.07,0,0,1,.92.6,1.31,1.31,0,0,1,.28.84,1.43,1.43,0,0,1-.29.88A2,2,0,0,1,31.55,40.52Z"/><path class="cls-2" d="M37.76,41.26a4.8,4.8,0,0,0,2.58.7,5.08,5.08,0,0,0,2.48-.63,4.25,4.25,0,0,0,1.77-1.86,6,6,0,0,0,.63-2.78,6.1,6.1,0,0,0-.6-2.74,4.37,4.37,0,0,0-1.73-1.88,4.85,4.85,0,0,0-2.54-.67,4.68,4.68,0,0,0-3.53,1.43,5.56,5.56,0,0,0-1.36,4A5.74,5.74,0,0,0,36,39.36,4.52,4.52,0,0,0,37.76,41.26Zm.12-7.72a3.49,3.49,0,0,1,2.47-1,3.28,3.28,0,0,1,3.06,1.95,5.27,5.27,0,0,1,.42,2.18,4.31,4.31,0,0,1-1,3,3.47,3.47,0,0,1-5,0,4.11,4.11,0,0,1-1-2.91A4.45,4.45,0,0,1,37.88,33.54Z"/><polygon class="cls-2" points="48.24 33.76 53.6 41.78 54.99 41.78 54.99 31.58 53.69 31.58 53.69 39.59 48.33 31.58 46.95 31.58 46.95 41.78 48.24 41.78 48.24 33.76"/><path class="cls-2" d="M20.37,0,0,19V70H70V0ZM18.8,8.55v9H9.18Zm46,56.26H5.19V22.69H24V5.19H64.81Z"/></g></g></svg>