<svg xmlns="http://www.w3.org/2000/svg" viewBox="0 0 48.13 48.13"><defs><style>.cls-1{fill:#47484c;}</style></defs><title>icon_twitter</title><g id="Layer_2" data-name="Layer 2"><g id="Layer_1-2" data-name="Layer 1"><path class="cls-1" d="M24.06,0A24.06,24.06,0,1,0,48.12,24.06,24.06,24.06,0,0,0,24.06,0ZM36.15,19.5c0,.25,0,.5,0,.75,0,7.67-5.83,16.5-16.5,16.5a16.45,16.45,0,0,1-8.89-2.6,12.48,12.48,0,0,0,1.38.08,11.69,11.69,0,0,0,7.21-2.48,5.82,5.82,0,0,1-5.42-4,5.52,5.52,0,0,0,1.09.1,5.94,5.94,0,0,0,1.53-.2,5.8,5.8,0,0,1-4.66-5.69v-.07a5.87,5.87,0,0,0,2.63.72,5.79,5.79,0,0,1-1.79-7.74,16.45,16.45,0,0,0,12,6.06,5.81,5.81,0,0,1,9.89-5.29,11.48,11.48,0,0,0,3.68-1.41,5.78,5.78,0,0,1-2.55,3.21A11.65,11.65,0,0,0,39,16.5,12,12,0,0,1,36.15,19.5Z"/></g></g></svg>