<svg xmlns="http://www.w3.org/2000/svg" viewBox="0 0 70 69.53"><defs><style>.cls-1,.cls-10,.cls-11,.cls-12,.cls-13,.cls-14,.cls-2,.cls-3,.cls-4,.cls-5,.cls-6,.cls-7,.cls-8,.cls-9{fill:#fff;}.cls-1{opacity:0.93;}.cls-2{opacity:0.85;}.cls-3{opacity:0.78;}.cls-4{opacity:0.71;}.cls-5{opacity:0.63;}.cls-6{opacity:0.56;}.cls-7{opacity:0.49;}.cls-8{opacity:0.42;}.cls-9{opacity:0.34;}.cls-10{opacity:0.27;}.cls-11{opacity:0.2;}.cls-12{opacity:0.12;}.cls-14{opacity:0.05;}</style></defs><title>Asset 7</title><g id="Layer_2" data-name="Layer 2"><g id="Layer_1-2" data-name="Layer 1"><rect class="cls-1" x="27.88" y="4.84" width="14.28" height="4.59" rx="1.87" transform="translate(27.82 42.14) rotate(-89.91)"/><rect class="cls-2" x="40.66" y="7.94" width="14.28" height="4.59" rx="1.87" transform="translate(16.91 48.12) rotate(-62.89)"/><rect class="cls-3" x="50.77" y="16.72" width="14.28" height="4.59" rx="1.87" transform="translate(-0.39 36.79) rotate(-35.13)"/><rect class="cls-4" x="55.71" y="29.56" width="14.28" height="4.59" rx="1.87" transform="translate(-3.33 7.67) rotate(-6.8)"/><rect class="cls-5" x="58.99" y="37.82" width="4.59" height="14.28" rx="1.87" transform="translate(-2.19 86.76) rotate(-69.64)"/><rect class="cls-6" x="51.56" y="48.81" width="4.59" height="14.28" rx="1.87" transform="translate(-23.62 50.69) rotate(-42.21)"/><rect class="cls-7" x="39.37" y="55.29" width="4.59" height="14.28" rx="1.87" transform="translate(-13.68 11.73) rotate(-13.79)"/><rect class="cls-8" x="21.26" y="60.15" width="14.28" height="4.59" rx="1.87" transform="translate(-38.98 75.32) rotate(-76.37)"/><rect class="cls-9" x="9.52" y="54.12" width="14.28" height="4.59" rx="1.87" transform="translate(-36.93 32.16) rotate(-49.2)"/><rect class="cls-10" x="1.64" y="42.85" width="14.28" height="4.59" rx="1.87" transform="translate(-15.51 6.09) rotate(-20.87)"/><rect class="cls-11" x="4.86" y="24.71" width="4.59" height="14.28" rx="1.87" transform="translate(-25.32 35.13) rotate(-83.11)"/><rect class="cls-12" x="9.44" y="12.38" width="4.59" height="14.28" rx="1.87" transform="translate(-11.01 18.36) rotate(-56.08)"/><rect class="cls-13" x="19.54" y="3.29" width="4.59" height="14.28" rx="1.87" transform="translate(-2.34 11.47) rotate(-28)"/><rect class="cls-14" x="19.54" y="3.29" width="4.59" height="14.28" rx="1.87" transform="translate(-2.34 11.47) rotate(-28)"/><path class="cls-13" d="M42.1,34.91l-4.87,4.32v-12a2.09,2.09,0,1,0-4.17,0v12l-4.88-4.32A2.09,2.09,0,0,0,25.41,38l8.35,7.41.09.07.1.07.07.05.19.11.1,0,.06,0,.24.08.07,0h.07a1.72,1.72,0,0,0,.39,0h0a1.81,1.81,0,0,0,.4,0h.07l.07,0,.23-.07.06,0,.1,0,.19-.11.08-.05.09-.07.1-.07L44.87,38a2.09,2.09,0,1,0-2.77-3.12Z"/></g></g></svg>