<svg xmlns="http://www.w3.org/2000/svg" viewBox="0 0 48.13 33.74"><defs><style>.cls-1{fill:#47484c;}</style></defs><title>icon_youtube</title><g id="Layer_2" data-name="Layer 2"><g id="Layer_1-2" data-name="Layer 1"><path class="cls-1" d="M47.1,5.28A6,6,0,0,0,42.84,1C39.1,0,24.06,0,24.06,0S9,0,5.26,1.05A6,6,0,0,0,1,5.31C0,9.05,0,16.87,0,16.87s0,7.82,1,11.59a6.07,6.07,0,0,0,4.26,4.26c3.74,1,18.78,1,18.78,1s15,0,18.78-1a6,6,0,0,0,4.26-4.26c1-3.74,1-11.59,1-11.59s0-7.82-1-11.59ZM19.25,24.09V9.65l12.5,7.22Z"/></g></g></svg>