<svg id="Slide_Schedule_Pro_-_Web_Title" data-name="Slide Schedule Pro - Web Title" xmlns="http://www.w3.org/2000/svg" xmlns:xlink="http://www.w3.org/1999/xlink" width="871.63" height="122.55" viewBox="0 0 871.63 122.55">
  <defs>
    <style>
      .cls-1 {
        fill: none;
      }

      .cls-2 {
        fill: #2d2d2d;
      }

      .cls-3 {
        clip-path: url(#clip-path);
      }

      .cls-4 {
        fill: #373737;
      }

      .cls-5 {
        fill: #446cfc;
      }

      .cls-6 {
        fill: #fff;
      }
    </style>
    <clipPath id="clip-path" transform="translate(0 4.67)">
      <path class="cls-1" d="M108.78,2.22h-95A13.78,13.78,0,0,0,0,16V97.23A13.79,13.79,0,0,0,13.77,111h95a13.78,13.78,0,0,0,13.77-13.77V16A13.78,13.78,0,0,0,108.78,2.22Z"/>
    </clipPath>
  </defs>
  <g>
    <path class="cls-2" d="M195.74,66.12a23.6,23.6,0,0,0,17.1,7.26c6.29,0,9.36-3,9.36-6,0-4-4.68-5.41-10.89-6.86-8.79-2-20.08-4.43-20.08-16.45,0-9,7.74-16.21,20.4-16.21,8.55,0,15.65,2.58,21,7.5l-6.37,8.39a23,23,0,0,0-15.41-5.89c-5.16,0-7.9,2.26-7.9,5.49,0,3.63,4.52,4.75,10.73,6.21,8.87,2,20.16,4.67,20.16,16.61,0,9.84-7,17.26-21.53,17.26-10.33,0-17.75-3.47-22.83-8.55Z" transform="translate(0 4.67)"/>
    <path class="cls-2" d="M240.92,28.62h10.24V82.41H240.92Z" transform="translate(0 4.67)"/>
    <path class="cls-2" d="M259.87,31.6a6.13,6.13,0,0,1,12.26,0,6.13,6.13,0,1,1-12.26,0Zm1.05,11.86h10.24V82.41H260.92Z" transform="translate(0 4.67)"/>
    <path class="cls-2" d="M307.7,77.41a15.14,15.14,0,0,1-12,6c-9.84,0-17.26-7.42-17.26-20.41,0-12.74,7.34-20.48,17.26-20.48a15,15,0,0,1,12,6V28.62H318V82.41H307.7Zm0-21.37a11.17,11.17,0,0,0-8.88-4.44C293,51.6,289,56.2,289,63s4,11.29,9.83,11.29a11.16,11.16,0,0,0,8.88-4.43Z" transform="translate(0 4.67)"/>
    <path class="cls-2" d="M345.58,42.49c11.62,0,19.52,8.71,19.52,21.45V66.2h-29c.64,4.92,4.59,9,11.21,9a15.91,15.91,0,0,0,10.4-3.87L362.28,78c-3.88,3.55-10,5.41-16,5.41-11.86,0-20.81-8-20.81-20.49C325.42,51.6,333.73,42.49,345.58,42.49ZM336,59.26h19.19c-.24-3.71-2.82-8.63-9.6-8.63C339.21,50.63,336.47,55.39,336,59.26Z" transform="translate(0 4.67)"/>
    <path class="cls-2" d="M396.74,66.12a23.6,23.6,0,0,0,17.1,7.26c6.29,0,9.36-3,9.36-6,0-4-4.68-5.41-10.89-6.86-8.79-2-20.08-4.43-20.08-16.45,0-9,7.74-16.21,20.4-16.21,8.55,0,15.65,2.58,21,7.5l-6.37,8.39a23,23,0,0,0-15.41-5.89c-5.16,0-7.9,2.26-7.9,5.49,0,3.63,4.52,4.75,10.73,6.21,8.87,2,20.16,4.67,20.16,16.61,0,9.84-7,17.26-21.53,17.26-10.33,0-17.75-3.47-22.83-8.55Z" transform="translate(0 4.67)"/>
    <path class="cls-2" d="M460.07,42.49c8,0,12.82,3.47,15.4,7l-6.69,6.29a9.44,9.44,0,0,0-8.23-4.2c-6.21,0-10.56,4.52-10.56,11.29s4.35,11.37,10.56,11.37a9.84,9.84,0,0,0,8.23-4.19l6.69,6.21c-2.58,3.63-7.42,7.1-15.4,7.1-12,0-20.65-8.47-20.65-20.49S448.05,42.49,460.07,42.49Z" transform="translate(0 4.67)"/>
    <path class="cls-2" d="M508.29,58.7c0-5.4-2.82-7.1-7.26-7.1a11.36,11.36,0,0,0-8.87,4.6V82.41H481.92V28.62h10.24V48.54a18,18,0,0,1,13.71-6c8.55,0,12.66,4.68,12.66,12.26V82.41H508.29Z" transform="translate(0 4.67)"/>
    <path class="cls-2" d="M546.58,42.49c11.62,0,19.52,8.71,19.52,21.45V66.2h-29c.64,4.92,4.59,9,11.21,9a15.91,15.91,0,0,0,10.4-3.87L563.28,78c-3.87,3.55-10,5.41-16,5.41-11.86,0-20.81-8-20.81-20.49C526.42,51.6,534.73,42.49,546.58,42.49ZM537,59.26h19.19c-.24-3.71-2.82-8.63-9.6-8.63C540.21,50.63,537.47,55.39,537,59.26Z" transform="translate(0 4.67)"/>
    <path class="cls-2" d="M600.7,77.41a15.14,15.14,0,0,1-12,6c-9.84,0-17.26-7.42-17.26-20.41,0-12.74,7.34-20.48,17.26-20.48a15,15,0,0,1,12,6V28.62H611V82.41H600.7Zm0-21.37a11.17,11.17,0,0,0-8.87-4.44C586,51.6,582,56.2,582,63s4,11.29,9.84,11.29a11.16,11.16,0,0,0,8.87-4.43Z" transform="translate(0 4.67)"/>
    <path class="cls-2" d="M647.21,77.49a18.25,18.25,0,0,1-13.71,5.89c-8.55,0-12.58-4.68-12.58-12.26V43.46h10.24V67.09c0,5.4,2.83,7.17,7.18,7.17a11.45,11.45,0,0,0,8.87-4.43V43.46h10.24V82.41H647.21Z" transform="translate(0 4.67)"/>
    <path class="cls-2" d="M667.92,28.62h10.24V82.41H667.92Z" transform="translate(0 4.67)"/>
    <path class="cls-2" d="M705.58,42.49c11.62,0,19.52,8.71,19.52,21.45V66.2h-29c.64,4.92,4.59,9,11.21,9a15.91,15.91,0,0,0,10.4-3.87L722.28,78c-3.87,3.55-10,5.41-16,5.41-11.86,0-20.81-8-20.81-20.49C685.42,51.6,693.73,42.49,705.58,42.49ZM696,59.26h19.19c-.24-3.71-2.82-8.63-9.6-8.63C699.21,50.63,696.47,55.39,696,59.26Z" transform="translate(0 4.67)"/>
    <path class="cls-2" d="M754.16,28.62h25.17c11.69,0,18.06,7.9,18.06,17.34s-6.45,17.17-18.06,17.17H765.62V82.41H754.16Zm23.63,9.84H765.62V53.3h12.17c4.52,0,7.91-2.91,7.91-7.42S782.31,38.46,777.79,38.46Z" transform="translate(0 4.67)"/>
    <path class="cls-2" d="M803.92,43.46h10.24v5.32a16.67,16.67,0,0,1,12.42-6.21v10a13,13,0,0,0-2.82-.32c-3.39,0-7.9,1.93-9.6,4.43V82.41H803.92Z" transform="translate(0 4.67)"/>
    <path class="cls-2" d="M830.42,62.89c0-11,7.74-20.4,20.57-20.4s20.64,9.35,20.64,20.4S863.89,83.38,851,83.38,830.42,74,830.42,62.89Zm30.57,0c0-6-3.63-11.29-10-11.29s-9.92,5.24-9.92,11.29,3.55,11.37,9.92,11.37S861,69,861,62.89Z" transform="translate(0 4.67)"/>
  </g>
  <g>
    <g class="cls-3">
      <path class="cls-4" d="M122.55-4.67H0V117.89H122.55Z" transform="translate(0 4.67)"/>
    </g>
    <g id="Calendar">
      <g>
        <path class="cls-5" d="M32.71,32.23a4,4,0,0,1-4-4V28.1a4,4,0,1,1,7.94,0v.16A4,4,0,0,1,32.71,32.23Z" transform="translate(0 4.67)"/>
        <path class="cls-5" d="M47,32.23a4,4,0,0,1-4-4V28.1a4,4,0,1,1,7.93,0v.16A4,4,0,0,1,47,32.23Z" transform="translate(0 4.67)"/>
        <path class="cls-5" d="M61.28,32.23a4,4,0,0,1-4-4V28.1a4,4,0,1,1,7.94,0v.16A4,4,0,0,1,61.28,32.23Z" transform="translate(0 4.67)"/>
        <path class="cls-5" d="M75.56,32.23a4,4,0,0,1-4-4V28.1a4,4,0,0,1,7.94,0v.16A4,4,0,0,1,75.56,32.23Z" transform="translate(0 4.67)"/>
        <path class="cls-5" d="M89.84,32.23a4,4,0,0,1-4-4V28.1a4,4,0,1,1,7.93,0v.16A4,4,0,0,1,89.84,32.23Z" transform="translate(0 4.67)"/>
        <path class="cls-5" d="M104.13,32.23a4,4,0,0,1-4-4V28.1a4,4,0,1,1,7.94,0v.16A4,4,0,0,1,104.13,32.23Z" transform="translate(0 4.67)"/>
      </g>
      <g>
        <path class="cls-5" d="M18.43,46.43a4,4,0,0,1-4-4v-.16a4,4,0,1,1,7.93,0v.16A4,4,0,0,1,18.43,46.43Z" transform="translate(0 4.67)"/>
        <path class="cls-5" d="M32.71,46.43a4,4,0,0,1-4-4v-.16a4,4,0,1,1,7.94,0v.16A4,4,0,0,1,32.71,46.43Z" transform="translate(0 4.67)"/>
        <path class="cls-5" d="M47,46.43a4,4,0,0,1-4-4v-.16a4,4,0,1,1,7.93,0v.16A4,4,0,0,1,47,46.43Z" transform="translate(0 4.67)"/>
        <path class="cls-5" d="M61.28,46.43a4,4,0,0,1-4-4v-.16a4,4,0,0,1,7.94,0v.16A4,4,0,0,1,61.28,46.43Z" transform="translate(0 4.67)"/>
        <path class="cls-5" d="M75.56,46.43a4,4,0,0,1-4-4v-.16a4,4,0,0,1,7.94,0v.16A4,4,0,0,1,75.56,46.43Z" transform="translate(0 4.67)"/>
        <path class="cls-5" d="M89.84,46.43a4,4,0,0,1-4-4v-.16a4,4,0,1,1,7.93,0v.16A4,4,0,0,1,89.84,46.43Z" transform="translate(0 4.67)"/>
        <path class="cls-5" d="M104.13,46.43a4,4,0,0,1-4-4v-.16a4,4,0,0,1,7.94,0v.16A4,4,0,0,1,104.13,46.43Z" transform="translate(0 4.67)"/>
      </g>
      <g>
        <path class="cls-5" d="M18.43,60.64a4,4,0,0,1-4-4v-.15a4,4,0,1,1,7.93,0v.15A4,4,0,0,1,18.43,60.64Z" transform="translate(0 4.67)"/>
        <path class="cls-5" d="M32.71,60.64a4,4,0,0,1-4-4v-.15a4,4,0,1,1,7.94,0v.15A4,4,0,0,1,32.71,60.64Z" transform="translate(0 4.67)"/>
        <path class="cls-5" d="M47,60.64a4,4,0,0,1-4-4v-.15a4,4,0,1,1,7.93,0v.15A4,4,0,0,1,47,60.64Z" transform="translate(0 4.67)"/>
        <path class="cls-5" d="M61.28,60.64a4,4,0,0,1-4-4v-.15a4,4,0,1,1,7.94,0v.15A4,4,0,0,1,61.28,60.64Z" transform="translate(0 4.67)"/>
        <path class="cls-5" d="M75.56,60.64a4,4,0,0,1-4-4v-.15a4,4,0,1,1,7.94,0v.15A4,4,0,0,1,75.56,60.64Z" transform="translate(0 4.67)"/>
        <path class="cls-5" d="M89.84,60.64a4,4,0,0,1-4-4v-.15a4,4,0,1,1,7.93,0v.15A4,4,0,0,1,89.84,60.64Z" transform="translate(0 4.67)"/>
        <path class="cls-5" d="M104.13,60.64a4,4,0,0,1-4-4v-.15a4,4,0,1,1,7.94,0v.15A4,4,0,0,1,104.13,60.64Z" transform="translate(0 4.67)"/>
      </g>
      <g>
        <path class="cls-5" d="M18.43,74.85a4,4,0,0,1-4-4v-.16a4,4,0,0,1,7.93,0v.16A4,4,0,0,1,18.43,74.85Z" transform="translate(0 4.67)"/>
        <path class="cls-5" d="M32.71,74.85a4,4,0,0,1-4-4v-.16a4,4,0,0,1,7.94,0v.16A4,4,0,0,1,32.71,74.85Z" transform="translate(0 4.67)"/>
        <path class="cls-5" d="M47,74.85a4,4,0,0,1-4-4v-.16a4,4,0,0,1,7.93,0v.16A4,4,0,0,1,47,74.85Z" transform="translate(0 4.67)"/>
        <path class="cls-5" d="M61.28,74.85a4,4,0,0,1-4-4v-.16a4,4,0,0,1,7.94,0v.16A4,4,0,0,1,61.28,74.85Z" transform="translate(0 4.67)"/>
        <path class="cls-5" d="M75.56,74.85a4,4,0,0,1-4-4v-.16a4,4,0,0,1,7.94,0v.16A4,4,0,0,1,75.56,74.85Z" transform="translate(0 4.67)"/>
        <path class="cls-5" d="M89.84,74.85a4,4,0,0,1-4-4v-.16a4,4,0,0,1,7.93,0v.16A4,4,0,0,1,89.84,74.85Z" transform="translate(0 4.67)"/>
        <path class="cls-5" d="M104.13,74.85a4,4,0,0,1-4-4v-.16a4,4,0,0,1,7.94,0v.16A4,4,0,0,1,104.13,74.85Z" transform="translate(0 4.67)"/>
      </g>
      <g>
        <path class="cls-5" d="M18.43,89.08a4,4,0,0,1-4-4V85a4,4,0,1,1,7.93,0v.16A4,4,0,0,1,18.43,89.08Z" transform="translate(0 4.67)"/>
        <path class="cls-5" d="M32.71,89.08a4,4,0,0,1-4-4V85a4,4,0,1,1,7.94,0v.16A4,4,0,0,1,32.71,89.08Z" transform="translate(0 4.67)"/>
        <path class="cls-5" d="M47,89.08a4,4,0,0,1-4-4V85A4,4,0,1,1,51,85v.16A4,4,0,0,1,47,89.08Z" transform="translate(0 4.67)"/>
      </g>
    </g>
    <path class="cls-6" d="M46.54,83.11A5.55,5.55,0,0,1,41,77.59v-42a5.51,5.51,0,0,1,8.26-4.77l36.36,21a5.52,5.52,0,0,1,0,9.55l-36.36,21A5.45,5.45,0,0,1,46.54,83.11Zm0-48.88a1.47,1.47,0,0,0-.7.19,1.36,1.36,0,0,0-.69,1.2v42a1.33,1.33,0,0,0,.69,1.19,1.36,1.36,0,0,0,1.38,0l36.35-21a1.38,1.38,0,0,0,0-2.39l-36.35-21A1.35,1.35,0,0,0,46.55,34.23Z" transform="translate(0 4.67)"/>
  </g>
</svg>
