<?xml version="1.0" encoding="UTF-8"?>
<svg xmlns="http://www.w3.org/2000/svg" width="125.142" height="23.848" viewbox="0 0 125.142 23.848"><path id="logo" fill="black" d="M75.7024,23.8477a15.9629,15.9629,0,0,1-12.5649-6.4913l-5.7227-7.2382a10.2516,10.2516,0,0,0-7.9785-4.27,10.2516,10.2516,0,0,0-7.9785,4.2705l-5.7232,7.2382A15.9621,15.9621,0,0,1,23.17,23.8477a15.9623,15.9623,0,0,1-12.5654-6.4913L.6306,4.7422a2.9238,2.9238,0,0,1,4.5869-3.627L15.1912,13.73A10.25,10.25,0,0,0,23.17,18a10.25,10.25,0,0,0,7.978-4.27l5.7232-7.2383A15.9654,15.9654,0,0,1,49.4363,0,15.9654,15.9654,0,0,1,62.0017,6.4912L67.7249,13.73a9.5874,9.5874,0,0,0,15.956,0l5.7227-7.2383a15.4084,15.4084,0,0,1,25.1318,0l9.9766,12.6182a2.9242,2.9242,0,1,1-4.5879,3.6269l-9.9766-12.6181a9.5874,9.5874,0,0,0-15.956,0l-5.7227,7.2382A15.965,15.965,0,0,1,75.7024,23.8477Z"/></svg>